<?xml version="1.0"?>
<svg xmlns="http://www.w3.org/2000/svg" xmlns:xlink="http://www.w3.org/1999/xlink" xmlns:svgjs="http://svgjs.com/svgjs" version="1.1" width="512" height="512" x="0" y="0" viewBox="0 0 74 74" style="enable-background:new 0 0 512 512" xml:space="preserve"><g><path xmlns="http://www.w3.org/2000/svg" d="m39.534 70.955a8.925 8.925 0 0 1 -2.972-.509l-19.67-6.938a1 1 0 0 1 -.668-.943v-24.7a1 1 0 0 1 .963-1 18.807 18.807 0 0 1 8.413 1.712l3.051 1.391 11.33.609a4.368 4.368 0 0 1 .341 8.689l-3.761.266 6.464 1.112 22.075-11.126a4.585 4.585 0 0 1 5.635 7.12l-25.3 22.109a8.961 8.961 0 0 1 -5.901 2.208zm-21.31-9.1 19 6.7a6.961 6.961 0 0 0 6.884-1.32l25.239-22.035a2.591 2.591 0 0 0 -3.282-3.933l-22.434 11.312a1 1 0 0 1 -.619.092l-14.928-2.571a1 1 0 0 1 .1-1.983l11.93-.842a2.37 2.37 0 0 0 -.244-4.7l-11.516-.619a1 1 0 0 1 -.361-.089l-3.221-1.467a17.027 17.027 0 0 0 -6.548-1.539z" fill="#ffffff" data-original="#000000" style=""/><path xmlns="http://www.w3.org/2000/svg" d="m15.149 68.25h-10.07a3.083 3.083 0 0 1 -3.079-3.08v-27.941a3.082 3.082 0 0 1 3.079-3.079h10.07a3.083 3.083 0 0 1 3.08 3.079v27.941a3.084 3.084 0 0 1 -3.08 3.08zm-10.07-32.1a1.08 1.08 0 0 0 -1.079 1.079v27.941a1.08 1.08 0 0 0 1.079 1.08h10.07a1.081 1.081 0 0 0 1.08-1.08v-27.941a1.081 1.081 0 0 0 -1.08-1.079z" fill="#ffffff" data-original="#000000" style=""/><path xmlns="http://www.w3.org/2000/svg" d="m10.114 64a3.295 3.295 0 1 1 3.3-3.295 3.3 3.3 0 0 1 -3.3 3.295zm0-4.589a1.295 1.295 0 1 0 1.3 1.294 1.295 1.295 0 0 0 -1.3-1.296z" fill="#ffffff" data-original="#000000" style=""/><path xmlns="http://www.w3.org/2000/svg" d="m54.619 39.683h-7.619a2.893 2.893 0 0 1 -2.916-2.933v-4.774a1 1 0 0 1 2 0v4.774a.9.9 0 0 0 .916.933h7.619c.613 0 1.313-.5 1.313-.933v-4.774a1 1 0 0 1 2 0v4.774a3.234 3.234 0 0 1 -3.313 2.933z" fill="#ffffff" data-original="#000000" style=""/><path xmlns="http://www.w3.org/2000/svg" d="m56.932 32.976h-11.848a1 1 0 0 1 -.984-.823 13.076 13.076 0 0 0 -3.411-6.386 13.706 13.706 0 1 1 20.637 0 13.079 13.079 0 0 0 -3.41 6.385 1 1 0 0 1 -.984.824zm-11.04-2h10.233a15.535 15.535 0 0 1 3.7-6.526 11.706 11.706 0 1 0 -17.627 0 15.539 15.539 0 0 1 3.694 6.526z" fill="#ffffff" data-original="#000000" style=""/><path xmlns="http://www.w3.org/2000/svg" d="m51.008 42.947a4.189 4.189 0 0 1 -4.183-4.184 1.069 1.069 0 0 1 1-1.078h6.367a1 1 0 0 1 1 1 4.206 4.206 0 0 1 -4.184 4.262zm-1.979-3.262a2.183 2.183 0 0 0 3.959 0z" fill="#ffffff" data-original="#000000" style=""/><path xmlns="http://www.w3.org/2000/svg" d="m48.266 21.2a1 1 0 0 1 -.707-.293l-2.612-2.607a1 1 0 1 1 1.414-1.414l1.905 1.905 6.968-6.968a1 1 0 1 1 1.414 1.414l-7.675 7.673a1 1 0 0 1 -.707.29z" fill="#ffffff" data-original="#000000" style=""/></g></svg>
